<svg width="25" height="24" viewBox="0 0 25 24" fill="none" xmlns="http://www.w3.org/2000/svg">
<g clip-path="url(#clip0_1620_109)">
<path d="M4.5 13C6.28309 13.2119 7.94305 14.0175 9.21276 15.2872C10.4825 16.557 11.2881 18.2169 11.5 20C12.3839 19.4904 13.1233 18.7638 13.6482 17.8889C14.1732 17.014 14.4663 16.0197 14.5 15C16.1791 14.4093 17.6454 13.334 18.7133 11.91C19.7813 10.486 20.4031 8.77734 20.5 7C20.5 6.20435 20.1839 5.44129 19.6213 4.87868C19.0587 4.31607 18.2956 4 17.5 4C15.7227 4.09691 14.014 4.71867 12.59 5.78665C11.166 6.85464 10.0907 8.32089 9.5 10C8.48026 10.0337 7.48596 10.3268 6.61106 10.8518C5.73617 11.3767 5.00959 12.1161 4.5 13Z" stroke="#1A1A1B" stroke-linecap="round" stroke-linejoin="round"/>
<path d="M7.49999 14C6.45922 14.5876 5.61765 15.4726 5.08315 16.5416C4.54865 17.6106 4.34559 18.8148 4.49999 20C5.68515 20.1544 6.88942 19.9513 7.95842 19.4168C9.02741 18.8823 9.91242 18.0408 10.5 17" stroke="#1A1A1B" stroke-linecap="round" stroke-linejoin="round"/>
<path d="M14.5 9C14.5 9.26522 14.6054 9.51957 14.7929 9.70711C14.9804 9.89464 15.2348 10 15.5 10C15.7652 10 16.0196 9.89464 16.2071 9.70711C16.3946 9.51957 16.5 9.26522 16.5 9C16.5 8.73478 16.3946 8.48043 16.2071 8.29289C16.0196 8.10536 15.7652 8 15.5 8C15.2348 8 14.9804 8.10536 14.7929 8.29289C14.6054 8.48043 14.5 8.73478 14.5 9Z" stroke="#1A1A1B" stroke-linecap="round" stroke-linejoin="round"/>
</g>
<defs>
<clipPath id="clip0_1620_109">
<rect width="24" height="24" fill="white" transform="translate(0.5)"/>
</clipPath>
</defs>
</svg>
