<svg width="100%" height="100%" viewBox="0 0 719 108" fill="none" xmlns="http://www.w3.org/2000/svg">
<path d="M30.2 107.536C24.312 107.536 19.1493 106.341 14.712 103.952C10.36 101.563 6.94667 97.9787 4.472 93.2C1.99733 88.336 0.76 82.32 0.76 75.152C0.76 65.936 2.76533 58.1707 6.776 51.856C10.7867 45.5413 16.248 40.7627 23.16 37.52C30.072 34.192 37.8373 32.528 46.456 32.528C54.3067 32.528 60.9627 33.552 66.424 35.6C71.8853 37.5627 76.3227 40.2933 79.736 43.792C83.1493 47.2053 85.624 51.1733 87.16 55.696C88.696 60.1333 89.464 64.784 89.464 69.648C89.464 73.8293 89.0373 77.84 88.184 81.68C87.3307 85.4347 86.2213 88.976 84.856 92.304H111.864V34.064H130.936V106H65.272L64.632 95.632C66.2533 92.7307 67.6187 89.2747 68.728 85.264C69.8373 81.2533 70.392 76.7733 70.392 71.824C70.392 66.448 69.4107 61.8827 67.448 58.128C65.5707 54.3733 62.7547 51.5147 59 49.552C55.2453 47.504 50.5947 46.48 45.048 46.48C39.2453 46.48 34.296 47.8453 30.2 50.576C26.104 53.3067 22.9893 56.976 20.856 61.584C18.7227 66.1067 17.656 71.1413 17.656 76.688C17.656 80.9547 18.1253 84.4107 19.064 87.056C20.0027 89.616 21.3253 91.4933 23.032 92.688C24.824 93.7973 26.9573 94.352 29.432 94.352C31.3947 94.352 33.016 93.968 34.296 93.2C35.6613 92.432 36.6853 91.3227 37.368 89.872C38.136 88.4213 38.52 86.672 38.52 84.624C38.52 81.3813 37.624 78.9067 35.832 77.2C34.1253 75.408 31.736 74.512 28.664 74.512C25.08 74.512 21.88 75.5787 19.064 77.712C16.248 79.76 13.688 82.0213 11.384 84.496L8.568 72.208C11.7253 69.2213 15.3093 66.704 19.32 64.656C23.3307 62.608 28.024 61.584 33.4 61.584C40.2267 61.584 45.7733 63.504 50.04 67.344C54.3067 71.184 56.44 76.6453 56.44 83.728C56.44 88.6773 55.416 92.944 53.368 96.528C51.4053 100.027 48.4613 102.757 44.536 104.72C40.696 106.597 35.9173 107.536 30.2 107.536ZM176.325 107.536C170.437 107.536 165.274 106.341 160.837 103.952C156.485 101.563 153.072 97.9787 150.597 93.2C148.122 88.4213 146.885 82.448 146.885 75.28C146.885 66.7467 149.018 59.28 153.285 52.88C157.552 46.48 163.653 41.488 171.589 37.904C179.525 34.32 189.04 32.528 200.133 32.528C205.424 32.528 210.202 32.8693 214.469 33.552C218.821 34.1493 222.917 35.216 226.757 36.752C230.597 38.288 234.522 40.336 238.533 42.896L241.733 44.944C247.621 49.4667 252.442 54.8 256.197 60.944C259.952 67.0027 261.829 74.0427 261.829 82.064C261.829 87.2693 260.805 91.792 258.757 95.632C256.794 99.472 253.893 102.416 250.053 104.464C246.298 106.512 241.733 107.536 236.357 107.536C230.213 107.536 225.221 106.384 221.381 104.08C217.626 101.776 214.853 98.704 213.061 94.864C211.354 90.9387 210.501 86.672 210.501 82.064C210.501 77.456 211.184 73.0187 212.549 68.752C213.914 64.4 215.962 60.2613 218.693 56.336C221.424 52.4107 224.794 48.6987 228.805 45.2L231.621 42.768C236.57 39.2693 241.733 36.7093 247.109 35.088C252.485 33.3813 258.885 32.528 266.309 32.528C270.917 32.528 275.098 32.8267 278.853 33.424C282.608 33.936 286.192 34.8747 289.605 36.24C293.018 37.6053 296.474 39.5253 299.973 42L302.789 44.176C306.885 47.3333 310.384 50.8747 313.285 54.8C316.272 58.64 318.533 62.8213 320.069 67.344C321.69 71.8667 322.501 76.7733 322.501 82.064C322.501 87.2693 321.477 91.792 319.429 95.632C317.466 99.472 314.565 102.416 310.725 104.464C306.97 106.512 302.405 107.536 297.029 107.536C290.885 107.536 285.893 106.384 282.053 104.08C278.298 101.776 275.525 98.704 273.733 94.864C272.026 90.9387 271.173 86.672 271.173 82.064C271.173 77.456 271.856 72.976 273.221 68.624C274.672 64.272 276.72 60.2187 279.365 56.464C282.01 52.624 285.082 49.2107 288.581 46.224L293.317 42.896C296.56 40.848 299.845 39.184 303.173 37.904C306.501 36.624 310.469 35.6853 315.077 35.088C319.77 34.4053 325.701 34.064 332.869 34.064H373.573V47.76H355.269V106H336.197V47.76H330.565C326.042 47.76 322.288 47.888 319.301 48.144C316.4 48.4 313.925 48.784 311.877 49.296C309.829 49.808 307.952 50.5333 306.245 51.472C304.624 52.4107 302.874 53.6053 300.997 55.056C298.352 56.7627 296.133 58.9813 294.341 61.712C292.549 64.3573 291.184 67.3013 290.245 70.544C289.392 73.7867 288.965 77.1573 288.965 80.656C288.965 85.6053 289.69 89.1467 291.141 91.28C292.592 93.4133 294.384 94.48 296.517 94.48C298.565 94.48 300.144 93.8827 301.253 92.688C302.448 91.408 303.258 89.744 303.685 87.696C304.197 85.5627 304.453 83.2587 304.453 80.784C304.453 77.3707 303.898 73.9147 302.789 70.416C301.765 66.832 300.144 63.5467 297.925 60.56C295.792 57.488 293.061 55.0133 289.733 53.136C285.893 50.32 282.01 48.528 278.085 47.76C274.16 46.9067 270.192 46.48 266.181 46.48C260.464 46.48 255.685 47.1627 251.845 48.528C248.09 49.808 244.976 51.3013 242.501 53.008C239.429 54.9707 236.826 57.36 234.693 60.176C232.56 62.9067 230.938 65.9787 229.829 69.392C228.805 72.8053 228.293 76.56 228.293 80.656C228.293 85.3493 228.976 88.848 230.341 91.152C231.792 93.3707 233.669 94.48 235.973 94.48C238.021 94.48 239.6 93.8827 240.709 92.688C241.818 91.408 242.586 89.744 243.013 87.696C243.525 85.5627 243.781 83.2587 243.781 80.784C243.781 75.4933 242.458 70.416 239.813 65.552C237.253 60.688 233.498 56.848 228.549 54.032C224.538 51.3013 220.186 49.3813 215.493 48.272C210.885 47.0773 205.85 46.48 200.389 46.48C193.136 46.48 186.949 47.5893 181.829 49.808C176.709 51.9413 172.698 54.8 169.797 58.384C166.896 61.968 165.061 65.8933 164.293 70.16C164.208 71.0987 164.08 72.0373 163.909 72.976C163.824 73.9147 163.781 75.2373 163.781 76.944C163.781 81.1253 164.208 84.496 165.061 87.056C166 89.616 167.365 91.4933 169.157 92.688C170.949 93.7973 173.082 94.352 175.557 94.352C177.52 94.352 179.141 93.968 180.421 93.2C181.786 92.432 182.81 91.3227 183.493 89.872C184.261 88.4213 184.645 86.672 184.645 84.624C184.645 81.4667 183.749 78.992 181.957 77.2C180.25 75.408 177.861 74.512 174.789 74.512C171.205 74.512 168.048 75.5787 165.317 77.712C162.586 79.76 159.984 82.0213 157.509 84.496L154.693 72.208C157.85 69.2213 161.434 66.704 165.445 64.656C169.456 62.608 174.149 61.584 179.525 61.584C186.437 61.584 191.984 63.504 196.165 67.344C200.432 71.184 202.565 76.6453 202.565 83.728C202.565 88.6773 201.584 92.944 199.621 96.528C197.658 100.027 194.714 102.757 190.789 104.72C186.949 106.597 182.128 107.536 176.325 107.536ZM408.507 107.536C402.107 107.536 396.475 106.683 391.611 104.976C386.747 103.184 382.95 100.624 380.219 97.296C377.488 93.8827 376.123 89.744 376.123 84.88C376.123 80.1867 377.488 76.1333 380.219 72.72C383.035 69.2213 387.472 66.4907 393.531 64.528C399.59 62.5653 407.526 61.584 417.339 61.584H444.475C449.936 61.584 454.459 61.7973 458.043 62.224C461.627 62.6507 464.699 63.376 467.259 64.4C469.819 65.3387 472.208 66.6187 474.427 68.24C476.987 70.032 478.992 72.4213 480.443 75.408C481.979 78.3093 482.747 81.6373 482.747 85.392C482.747 92.304 480.528 97.7227 476.091 101.648C471.739 105.573 465.467 107.536 457.275 107.536C455.227 107.536 452.88 107.408 450.235 107.152C447.675 106.981 445.286 106.597 443.067 106L446.139 92.816C447.334 93.1573 448.528 93.4133 449.723 93.584C450.918 93.6693 452.198 93.712 453.563 93.712C457.147 93.712 459.878 92.9867 461.755 91.536C463.632 90 464.571 87.6533 464.571 84.496C464.571 82.2773 463.974 80.528 462.779 79.248C461.67 77.8827 460.091 76.8587 458.043 76.176C456.08 75.4933 453.819 75.0667 451.259 74.896C448.699 74.64 446.054 74.512 443.323 74.512H415.035C412.048 74.512 409.19 74.6827 406.459 75.024C403.814 75.28 401.552 75.8773 399.675 76.816C398.054 77.6693 396.859 78.736 396.091 80.016C395.323 81.296 394.939 82.7893 394.939 84.496C394.939 87.7387 396.262 90.128 398.907 91.664C401.638 93.2 405.264 93.968 409.787 93.968C413.115 93.968 415.931 93.456 418.235 92.432C420.624 91.3227 422.459 89.4453 423.739 86.8C425.019 84.0693 425.659 80.3147 425.659 75.536V47.76H406.331V67.344L389.179 69.392V34.064H468.283V47.76H444.219V75.28C444.219 81.2533 443.622 85.9893 442.427 89.488C441.318 92.9013 439.696 95.8027 437.563 98.192C434.406 101.605 430.352 104.037 425.403 105.488C420.539 106.853 414.907 107.536 408.507 107.536ZM432.187 21.264C429.115 21.264 426.598 20.2827 424.635 18.32C422.672 16.272 421.691 13.712 421.691 10.64C421.691 7.568 422.672 5.05066 424.635 3.088C426.598 1.03999 429.115 0.0159912 432.187 0.0159912C435.174 0.0159912 437.648 1.03999 439.611 3.088C441.574 5.05066 442.555 7.568 442.555 10.64C442.555 13.712 441.574 16.272 439.611 18.32C437.648 20.2827 435.174 21.264 432.187 21.264ZM525.632 107.536C519.232 107.536 513.6 106.683 508.736 104.976C503.872 103.184 500.075 100.624 497.344 97.296C494.613 93.8827 493.248 89.744 493.248 84.88C493.248 80.1867 494.613 76.1333 497.344 72.72C500.16 69.2213 504.597 66.4907 510.656 64.528C516.715 62.5653 524.651 61.584 534.464 61.584H561.6C567.061 61.584 571.584 61.7973 575.168 62.224C578.752 62.6507 581.824 63.376 584.384 64.4C586.944 65.3387 589.333 66.6187 591.552 68.24C594.112 70.032 596.117 72.4213 597.568 75.408C599.104 78.3093 599.872 81.6373 599.872 85.392C599.872 92.304 597.653 97.7227 593.216 101.648C588.864 105.573 582.592 107.536 574.4 107.536C572.352 107.536 570.005 107.408 567.36 107.152C564.8 106.981 562.411 106.597 560.192 106L563.264 92.816C564.459 93.1573 565.653 93.4133 566.848 93.584C568.043 93.6693 569.323 93.712 570.688 93.712C574.272 93.712 577.003 92.9867 578.88 91.536C580.757 90 581.696 87.6533 581.696 84.496C581.696 82.2773 581.099 80.528 579.904 79.248C578.795 77.8827 577.216 76.8587 575.168 76.176C573.205 75.4933 570.944 75.0667 568.384 74.896C565.824 74.64 563.179 74.512 560.448 74.512H532.16C529.173 74.512 526.315 74.6827 523.584 75.024C520.939 75.28 518.677 75.8773 516.8 76.816C515.179 77.6693 513.984 78.736 513.216 80.016C512.448 81.296 512.064 82.7893 512.064 84.496C512.064 87.7387 513.387 90.128 516.032 91.664C518.763 93.2 522.389 93.968 526.912 93.968C530.24 93.968 533.056 93.456 535.36 92.432C537.749 91.3227 539.584 89.4453 540.864 86.8C542.144 84.0693 542.784 80.3147 542.784 75.536V47.76H523.456V67.344L506.304 69.392V34.064H585.408V47.76H561.344V75.28C561.344 81.2533 560.747 85.9893 559.552 89.488C558.443 92.9013 556.821 95.8027 554.688 98.192C551.531 101.605 547.477 104.037 542.528 105.488C537.664 106.853 532.032 107.536 525.632 107.536ZM684.869 32.528C692.805 32.528 699.248 34.2347 704.197 37.648C709.146 40.976 712.773 45.584 715.077 51.472C717.466 57.36 718.661 64.016 718.661 71.44C718.661 77.9253 717.893 83.344 716.357 87.696C714.906 92.048 712.56 95.5893 709.317 98.32C707.013 100.283 704.41 101.819 701.509 102.928C698.608 104.037 695.109 104.848 691.013 105.36C687.002 105.787 682.01 106 676.037 106H615.237V34.064H634.309V92.304H657.861V60.56C657.861 55.2693 658.416 50.96 659.525 47.632C660.72 44.304 662.426 41.5307 664.645 39.312C666.949 37.0933 669.765 35.4293 673.093 34.32C676.506 33.1253 680.432 32.528 684.869 32.528ZM686.149 46.224C685.04 46.224 683.93 46.3947 682.821 46.736C681.797 47.0773 680.858 47.6747 680.005 48.528C678.896 49.6373 678.085 51.1733 677.573 53.136C677.146 55.0133 676.933 58.128 676.933 62.48V92.304H681.797C686.32 92.304 689.861 91.664 692.421 90.384C695.066 89.0187 696.901 86.8 697.925 83.728C699.034 80.656 699.589 76.56 699.589 71.44C699.589 66.7467 699.162 62.5227 698.309 58.768C697.456 54.928 696.048 51.8987 694.085 49.68C692.122 47.376 689.477 46.224 686.149 46.224ZM665.029 21.264C661.957 21.264 659.44 20.2827 657.477 18.32C655.514 16.272 654.533 13.712 654.533 10.64C654.533 7.568 655.514 5.05066 657.477 3.088C659.44 1.03999 661.957 0.0159912 665.029 0.0159912C668.016 0.0159912 670.49 1.03999 672.453 3.088C674.416 5.05066 675.397 7.568 675.397 10.64C675.397 13.712 674.416 16.272 672.453 18.32C670.49 20.2827 668.016 21.264 665.029 21.264Z" fill="#459AF8"/>
</svg>
